# AST/ASF file generated using VICON BodyLanguage
# -----------------------------------------------
:version 1.10
:name VICON
:units
  mass 1.0
  length 0.45
  angle deg
:documentation
   .ast/.asf automatically generated from VICON data using
   VICON BodyBuilder and BodyLanguage model FoxedUp or BRILLIANT.MOD
:root
   order TX TY TZ RX RY RZ
   axis XYZ
   position 0 0 0  
   orientation 0 0 0 
:bonedata
  begin
     id 1 
     name lhipjoint
     direction 0.537252 -0.787203 0.302774 
     length 2.29576 
     axis 0 0 0  XYZ
  end
  begin
     id 2 
     name lfemur
     direction 0.34202 -0.939693 0  
     length 7.31114  
     axis 0 0 20  XYZ
    dof rx ry rz
    limits (-160.0 20.0)
           (-70.0 70.0)
           (-60.0 70.0)
  end
  begin
     id 3 
     name ltibia
     direction 0.34202 -0.939693 0   
     length 8.36008   
     axis 0 0 20   XYZ
    dof rx
    limits (-10.0 170.0)
  end
  begin
     id 4 
     name lfoot
     direction 0.0969116 -0.266263 0.959016   
     length 2.16704   
     axis -90 7.62852e-016 20   XYZ
    dof rx rz
    limits (-45.0 90.0)
           (-70.0 20.0)
  end
  begin
     id 5 
     name ltoes
     direction 1.53563e-011 -4.21779e-011 1   
     length 1.08338   
     axis -90 7.62852e-016 20   XYZ
    dof rx
    limits (-90.0 20.0)
  end
  begin
     id 6 
     name rhipjoint
     direction -0.588228 -0.754791 0.290308   
     length 2.39434  
     axis 0 0 0  XYZ 
  end
  begin
     id 7 
     name rfemur
     direction -0.34202 -0.939693 0   
     length 7.45207   
     axis 0 0 -20   XYZ
    dof rx ry rz
    limits (-160.0 20.0)
           (-70.0 70.0)
           (-70.0 60.0)
  end
  begin
     id 8 
     name rtibia
     direction -0.34202 -0.939693 0   
     length 8.03565   
     axis 0 0 -20   XYZ
    dof rx
    limits (-10.0 170.0)
 end
 begin
     id 9 
     name rfoot
     direction -0.107009 -0.294004 0.949795   
     length 2.11509  
     axis -90 -7.62852e-016 -20   XYZ
    dof rx rz
    limits (-45.0 90.0)
           (-20.0 70.0)
  end
  begin
     id 10 
     name rtoes
     direction -1.53533e-011 -4.22004e-011 1   
     length 1.05493   
     axis -90 -7.62852e-016 -20   XYZ
    dof rx
    limits (-90.0 20.0)
  end
  begin
     id 11 
     name lowerback
     direction -0.0115208 0.997969 -0.0626515   
     length 2.03153   
     axis 0 0 0   XYZ
    dof rx ry rz
    limits (-20.0 45.0)
           (-30.0 30.0)
           (-30.0 30.0)
  end
  begin
     id 12 
     name upperback
     direction -0.00423475 0.999974 -0.00583614   
     length 2.03619   
     axis 0 0 0   XYZ
    dof rx ry rz
    limits (-20.0 45.0)
           (-30.0 30.0)
           (-30.0 30.0)
  end
  begin
     id 13 
     name thorax
     direction 0.00289429 0.999728 0.0231573   
     length 2.03921   
     axis 0 0 0   XYZ
    dof rx ry rz
    limits (-20.0 45.0)
           (-30.0 30.0)
           (-30.0 30.0)
  end
  begin
     id 14 
     name lowerneck
     direction 0.0188995 0.987777 0.154721   
     length 1.78836   
     axis 0 0 0   XYZ
    dof rx ry rz
    limits (-20.0 45.0)
           (-30.0 30.0)
           (-30.0 30.0)
  end
  begin
     id 15 
     name upperneck
     direction -0.00612612 0.992995 -0.118   
     length 1.81789   
     axis 0 0 0   XYZ
    dof rx ry rz
    limits (-20.0 45.0)
           (-30.0 30.0)
           (-30.0 30.0)
  end
  begin
     id 16
     name head
     direction -0.00420226 0.998397 -0.0564482  
     length 1.82234  
     axis 0 0 0   XYZ
    dof rx ry rz
    limits (-20.0 45.0)
           (-30.0 30.0)
           (-30.0 30.0)
  end
  begin
     id 17 
     name lclavicle
     direction 0.916488 0.396539 0.0529676  
     length 3.51732  
     axis 0 0 0   XYZ
    dof ry rz
    limits (-20.0 10.0)
           (0.0 20.0)
  end
  begin
     id 18 
     name lhumerus
     direction 1 -4.4896e-011 8.36962e-028   
     length 5.45077   
     axis 180 -30 -90   XYZ
    dof rx ry rz
    limits (-60.0 90.0)
           (-90.0 90.0)
           (-90.0 90.0)
  end
  begin
     id 19
     name lradius
     direction 1 -4.48962e-011 3.01407e-027   
     length 3.05488   
     axis 180 -30 -90   XYZ
    dof rx
    limits (-10.0 170.0)
  end
  begin
     id 20
     name lwrist
     direction 1 -4.49002e-011 4.72961e-027   
     length 1.52744   
     axis -2.72261e-015 90 90   XYZ
    dof ry
    limits (-180.0 0.0)
 end
  begin
     id 21 
     name lhand
     direction 1 -4.4899e-011 9.45681e-027   
     length 0.638818   
     axis -6.0311e-015 90 90   XYZ
    dof rx rz
    limits (-90.0 90.0)
           (-45.0 45.0)
  end
  begin
     id 22 
     name lfingers
     direction 1 -4.48871e-011 1.88632e-026   
     length 0.515032   
     axis -1.20625e-014 90 90   XYZ
    dof rx
    limits (0.0 90.0)
  end
  begin
     id 23
     name lthumb
     direction 0.707107 -6.34964e-011 0.707107   
     length 0.739485   
     axis -90 45 6.32835e-014   XYZ
    dof rx rz
    limits (-45.0 45.0)
           (-45.0 45.0)
  end
  begin
     id 24 
     name rclavicle
     direction -0.949427 0.303202 0.0815894   
     length 3.76167  
     axis 0 0 0   XYZ 
    dof ry rz
    limits (-10.0 20.0)
           (-20.0 0.0)
  end
  begin
     id 25 
     name rhumerus
     direction -1 -4.48971e-011 -6.43969e-018  
     length 4.88702   
     axis 180 30 90   XYZ
    dof rx ry rz
    limits (-90.0 60.0)
           (-90.0 90.0)
           (-90.0 90.0)
  end
  begin
     id 26 
     name rradius
     direction -1 -4.48987e-011 5.46662e-027   
     length 3.22603   
     axis 180 30 90   XYZ
    dof rx
    limits (-10.0 170.0)
  end
  begin
     id 27 
     name rwrist
     direction -1 -4.48956e-011 4.72476e-027   
     length 1.61302   
     axis -2.72261e-015 -90 -90   XYZ
    dof ry
    limits (-180.0 0.0)
  end
  begin
     id 28
     name rhand
     direction -1 -4.4889e-011 9.43571e-027   
     length 0.716293   
     axis -6.0311e-015 -90 -90   XYZ
    dof rx rz
    limits (-90.0 90.0)
           (-45.0 45.0)
  end
  begin
     id 29
     name rfingers
     direction -1 -4.48887e-011 1.88701e-026   
     length 0.577494   
     axis -1.20625e-014 -90 -90   XYZ
    dof rx
    limits (0.0 90.0)
  end
  begin
     id 30
     name rthumb
     direction -0.707107 -6.34825e-011 0.707107   
     length 0.829169   
     axis -90 -45 -6.32835e-014   XYZ
    dof rx rz
    limits (-45.0 45.0)
           (-45.0 45.0)
  end
:hierarchy
  begin
    root lhipjoint rhipjoint lowerback
    lhipjoint lfemur
    lfemur ltibia
    ltibia lfoot
    lfoot ltoes
    rhipjoint rfemur
    rfemur rtibia
    rtibia rfoot
    rfoot rtoes
    lowerback upperback
    upperback thorax
    thorax lowerneck lclavicle rclavicle
    lowerneck upperneck
    upperneck head
    lclavicle lhumerus
    lhumerus lradius
    lradius lwrist
    lwrist lhand lthumb
    lhand lfingers
    rclavicle rhumerus
    rhumerus rradius
    rradius rwrist
    rwrist rhand rthumb
    rhand rfingers
  end

#!OML:ASF F:\VICON\USERDATA\INSTALL\rory3\rory3.ASF
:FULLY-SPECIFIED
:DEGREES
796
root 1.19005 18.4955 0.466421 175.799 65.3436 165.02
lowerback -6.95953 5.10525 4.37639
upperback 0.156083 6.45232 0.341969
thorax 4.49465 3.29885 -1.36622
lowerneck -11.3334 -14.4278 -8.43391
upperneck 25.6032 -19.2755 5.30538
head 11.5661 -8.67938 0.586596
rclavicle -6.26172e-015 -1.27222e-014
rhumerus 7.78661 65.5067 -60.0058
rradius 96.5981
rwrist -14.7749
rhand -10.4215 16.8291
rfingers 7.12502
rthumb 15.5778 -12.5635
lclavicle -6.26172e-015 -1.27222e-014
lhumerus -30.5958 -1.62216 19.362
lradius 103.32
lwrist 3.69201
lhand -13.3029 21.0684
lfingers 7.12502
lthumb 12.8012 50.6559
rfemur -6.80317 -8.60035 12.6952
rtibia 11.9289
rfoot -17.7698 -11.0121
rtoes -7.33475
lfemur -17.3266 1.67516 -23.1176
ltibia 15.9703
lfoot -6.55389 -16.8383
ltoes -19.8965
797
root 1.18406 18.4924 0.448364 175.57 65.4402 164.901
lowerback -6.89359 4.93847 4.55431
upperback 0.162458 6.215 0.480513
thorax 4.45307 3.18407 -1.35591
lowerneck -11.5259 -14.1983 -8.18329
upperneck 25.7644 -18.8598 4.79287
head 11.5443 -8.52193 0.431022
rclavicle 9.53172e-014 2.38542e-014
rhumerus 6.32256 64.5341 -62.0739
rradius 98.0093
rwrist -15.5429
rhand -10.3815 16.7857
rfingers 7.12502
rthumb 15.6163 -12.604
lclavicle 9.53172e-014 2.38542e-014
lhumerus -28.8968 -0.844634 17.7472
lradius 103.189
lwrist 3.43346
lhand -12.8592 20.5555
lfingers 7.12502
lthumb 13.2289 50.1157
rfemur -6.69222 -8.60523 12.5725
rtibia 11.9466
rfoot -17.7102 -10.9138
rtoes -7.72877
lfemur -17.1752 1.70735 -23.2088
ltibia 15.9846
lfoot -6.64361 -16.774
ltoes -20.0243
798
root 1.17915 18.4943 0.429925 175.201 65.5418 164.596
lowerback -6.85567 4.78767 4.65006
upperback 0.128142 6.00728 0.576827
thorax 4.38225 3.08165 -1.33995
lowerneck -11.5904 -13.9719 -7.97537
upperneck 25.8686 -18.4679 4.37875
head 11.4973 -8.37242 0.320788
rclavicle -2.20651e-014 3.18055e-015
rhumerus 4.53015 63.3587 -64.3688
rradius 99.393
rwrist -16.2772
rhand -10.3717 16.8844
rfingers 7.12502
rthumb 15.6257 -12.5045
lclavicle -2.20651e-014 3.18055e-015
lhumerus -27.1458 -0.101459 16.2289
lradius 102.951
lwrist 3.4864
lhand -12.552 19.7929
lfingers 7.12502
lthumb 13.525 49.3337
rfemur -6.57364 -8.48436 12.3667
rtibia 11.8951
rfoot -17.6713 -10.9631
rtoes -7.92212
lfemur -17.0338 1.75176 -23.3772
ltibia 16.0353
lfoot -6.67513 -16.6886
ltoes -19.9997
799
root 1.17519 18.4967 0.413685 174.567 65.6609 164.019
lowerback -6.86495 4.63655 4.33378
upperback 0.144418 5.82295 0.848795
thorax 4.33182 2.98149 -0.908358
lowerneck -11.6668 -13.7564 -7.95834
upperneck 25.8569 -18.0589 4.01082
head 11.4363 -8.23315 0.255025
rclavicle 2.46493e-014 -2.54444e-014
rhumerus 2.9606 62.0043 -66.1317
rradius 100.744
rwrist -17.1109
rhand -10.5886 16.7524
rfingers 7.12502
rthumb 15.4168 -12.6527
lclavicle 2.46493e-014 -2.54444e-014
lhumerus -25.4489 0.694834 15.1725
lradius 102.719
lwrist 3.64709
lhand -12.2936 19.3773
lfingers 7.12502
lthumb 13.774 48.9014
rfemur -6.45097 -8.21417 12.0465
rtibia 11.8757
rfoot -17.7368 -11.121
rtoes -7.62899
lfemur -16.8532 1.8899 -23.6669
ltibia 16.0445
lfoot -6.6742 -16.6614
ltoes -20.1583
800
root 1.17197 18.4979 0.395376 174.529 65.8654 164.06
lowerback -6.92155 4.48395 4.26067
upperback 0.137737 5.61483 1.22494
thorax 4.29996 2.87523 -0.502063
lowerneck -11.7079 -13.5235 -7.95629
upperneck 25.8265 -17.5975 3.54963
head 11.3518 -8.08498 0.170233
rclavicle -5.91384e-014 6.36111e-015
rhumerus 1.90154 60.7589 -67.3237
rradius 102.187
rwrist -18.3401
rhand -11.1544 16.2873
rfingers 7.12502
rthumb 14.8717 -13.1589
lclavicle -5.91384e-014 6.36111e-015
lhumerus -23.8212 1.35483 14.1488
lradius 102.637
lwrist 4.01636
lhand -12.0183 19.4619
lfingers 7.12502
lthumb 14.0393 48.9677
rfemur -6.44292 -8.00669 12.0328
rtibia 11.9343
rfoot -17.692 -11.1998
rtoes -7.57313
lfemur -16.7165 2.07497 -23.6688
ltibia 15.9803
lfoot -6.59913 -16.7734
ltoes -19.8142
801
root 1.16431 18.499 0.377338 174.123 66.0318 163.703
lowerback -6.86435 4.31192 4.38075
upperback 0.0933853 5.38 1.28493
thorax 4.21628 2.76028 -0.540649
lowerneck -11.9763 -13.3373 -7.76295
upperneck 26.2604 -17.2359 3.05834
head 11.4744 -7.93966 0.00277486
rclavicle 5.94366e-014 4.92986e-014
rhumerus 0.988298 59.3129 -68.7854
rradius 103.53
rwrist -19.5827
rhand -11.5037 15.8491
rfingers 7.12502
rthumb 14.5352 -13.6217
lclavicle 5.94366e-014 4.92986e-014
lhumerus -21.9919 2.00389 12.8304
lradius 102.359
lwrist 4.2147
lhand -12.1029 19.2789
lfingers 7.12502
lthumb 13.9578 48.7904
rfemur -6.5023 -7.81315 11.8236
rtibia 12.1098
rfoot -17.7796 -11.1911
rtoes -7.50587
lfemur -16.4923 2.1964 -23.844
ltibia 15.7582
lfoot -6.4288 -16.8997
ltoes -19.2443
802
root 1.15547 18.4975 0.359337 173.862 66.2136 163.437
lowerback -6.82695 4.13718 4.66069
upperback 0.00702077 5.13214 1.25396
thorax 4.12148 2.64183 -0.762022
lowerneck -12.0908 -13.1285 -7.54282
upperneck 26.5267 -16.8901 2.70745
head 11.5188 -7.79353 -0.107656
rclavicle -1.6201e-014 0
rhumerus 0.0810501 57.8416 -70.3759
rradius 104.635
rwrist -20.5156
rhand -11.9063 15.8632
rfingers 7.12502
rthumb 14.1473 -13.6351
lclavicle -1.6201e-014 0
lhumerus -20.1167 2.7637 11.4776
lradius 101.85
lwrist 3.70002
lhand -12.4304 18.3229
lfingers 7.12502
lthumb 13.6422 47.8558
rfemur -6.63132 -7.68548 11.6712
rtibia 12.3017
rfoot -17.8008 -11.105
rtoes -7.75546
lfemur -16.3668 2.33131 -24.0001
ltibia 15.4756
lfoot -6.36633 -16.9491
ltoes -19.0307
803
root 1.14727 18.4938 0.340744 173.623 66.4585 163.226
lowerback -6.84005 3.94393 4.78722
upperback -0.021451 4.86317 1.39324
thorax 4.08344 2.51033 -0.719434
lowerneck -12.218 -12.8732 -7.45746
upperneck 26.6349 -16.4472 2.36513
head 11.5167 -7.62414 -0.178929
rclavicle -1.68967e-015 3.18055e-014
rhumerus -0.565237 56.3879 -71.457
rradius 105.654
rwrist -21.2491
rhand -12.0867 16.0349
rfingers 7.12502
rthumb 13.9735 -13.4755
lclavicle -1.68967e-015 3.18055e-014
lhumerus -18.422 3.52498 10.3444
lradius 101.356
lwrist 2.85913
lhand -12.6966 17.7375
lfingers 7.12502
lthumb 13.3856 47.2874
rfemur -6.74718 -7.4032 11.5649
rtibia 12.5084
rfoot -17.823 -11.2684
rtoes -8.19878
lfemur -16.2815 2.55077 -24.1405
ltibia 15.1909
lfoot -6.38341 -17.0073
ltoes -19.2328
804
root 1.14056 18.4917 0.319011 173.388 66.6829 163.003
lowerback -6.94064 3.72516 4.78834
upperback -0.0199916 4.56158 1.64231
thorax 4.10509 2.36118 -0.490626
lowerneck -12.4443 -12.6024 -7.4203
upperneck 26.8139 -15.9143 1.84355
head 11.5466 -7.43748 -0.301654
rclavicle 7.55382e-015 -3.18055e-015
rhumerus -1.04183 54.973 -72.141
rradius 106.63
rwrist -22.0839
rhand -12.3235 16.0741
rfingers 7.12502
rthumb 13.7453 -13.4519
lclavicle 7.55382e-015 -3.18055e-015
lhumerus -16.848 4.23396 9.42619
lradius 100.94
lwrist 2.04554
lhand -12.6746 17.7253
lfingers 7.12502
lthumb 13.4068 47.2739
rfemur -6.85705 -7.16466 11.4351
rtibia 12.6917
rfoot -17.9367 -11.3369
rtoes -8.1783
lfemur -16.1637 2.72558 -24.2751
ltibia 14.9487
lfoot -6.40503 -17.0621
ltoes -19.3788
805
root 1.13452 18.4921 0.296359 173.138 66.9946 162.792
lowerback -6.98992 3.50848 4.80542
upperback -0.0432961 4.26657 1.88079
thorax 4.07704 2.21509 -0.285437
lowerneck -12.5855 -12.2937 -7.24041
upperneck 26.9598 -15.3453 1.26526
head 11.53 -7.23076 -0.452148
rclavicle 2.0276e-014 8.11041e-014
rhumerus -1.48073 53.6714 -72.7543
rradius 107.496
rwrist -22.8211
rhand -12.8386 15.779
rfingers 7.12502
rthumb 13.2487 -13.7799
lclavicle 2.0276e-014 8.11041e-014
lhumerus -15.3316 4.86131 8.53073
lradius 100.432
lwrist 1.44208
lhand -12.5743 17.5482
lfingers 7.12502
lthumb 13.5035 47.0904
rfemur -6.90685 -7.11246 11.3318
rtibia 12.7671
rfoot -17.8901 -11.2107
rtoes -8.60763
lfemur -15.9725 2.77501 -24.3358
ltibia 14.7945
lfoot -6.38612 -16.9098
ltoes -19.1867
806
root 1.12723 18.4934 0.276127 172.848 67.3884 162.503
lowerback -7.03102 3.33138 4.9174
upperback -0.0678239 4.01917 1.98438
thorax 4.06385 2.09462 -0.266755
lowerneck -12.7026 -11.9619 -6.83564
upperneck 27.0223 -14.8091 0.715552
head 11.4641 -7.0175 -0.626553
rclavicle -2.82274e-014 -2.06736e-014
rhumerus -1.68971 52.2185 -73.2823
rradius 108.204
rwrist -23.4538
rhand -13.3007 15.5368
rfingers 7.12502
rthumb 12.8033 -14.0506
lclavicle -2.82274e-014 -2.06736e-014
lhumerus -13.6608 5.57025 7.56863
lradius 99.723
lwrist 1.04371
lhand -12.4818 16.8828
lfingers 7.12502
lthumb 13.5926 46.4191
rfemur -6.97301 -7.00639 11.2284
rtibia 12.7344
rfoot -17.6817 -11.1187
rtoes -9.28714
lfemur -15.8879 2.97488 -24.4237
ltibia 14.7543
lfoot -6.50647 -16.8138
ltoes -19.6348
807
root 1.12173 18.4962 0.257911 172.71 67.7573 162.427
lowerback -7.07547 3.13508 5.10366
upperback -0.0623915 3.73823 2.10449
thorax 4.08593 1.95985 -0.27445
lowerneck -12.9429 -11.607 -6.48242
upperneck 27.1753 -14.2415 0.229177
head 11.4722 -6.78254 -0.78033
rclavicle -7.35503e-015 -5.24792e-014
rhumerus -1.67279 50.5683 -73.9239
rradius 108.669
rwrist -23.8325
rhand -13.5031 15.1546
rfingers 7.12502
rthumb 12.6082 -14.4449
lclavicle -7.35503e-015 -5.24792e-014
lhumerus -12.0277 6.25613 6.75452
lradius 99.0631
lwrist 0.988072
lhand -12.4246 16.6534
lfingers 7.12502
lthumb 13.6478 46.186
rfemur -6.95922 -6.78212 11.2109
rtibia 12.6632
rfoot -17.5518 -11.1584
rtoes -9.52159
lfemur -15.8081 3.18095 -24.4115
ltibia 14.7708
lfoot -6.62635 -16.7552
ltoes -19.8607
808
root 1.11965 18.4972 0.237239 172.342 68.0781 162.146
lowerback -7.14542 2.84577 5.06795
upperback -0.00116963 3.34416 2.34633
thorax 4.15429 1.76575 -0.0430132
lowerneck -13.2276 -11.219 -6.29276
upperneck 27.2381 -13.5749 -0.297938
head 11.4685 -6.52884 -0.912127
rclavicle 1.02374e-013 2.54444e-014
rhumerus -1.57862 48.8223 -74.5183
rradius 109.023
rwrist -23.8453
rhand -13.0948 14.6474
rfingers 7.12502
rthumb 13.0018 -14.9274
lclavicle 1.02374e-013 2.54444e-014
lhumerus -10.6759 7.01628 6.17635
lradius 98.5005
lwrist 1.26705
lhand -12.3415 16.8038
lfingers 7.12502
lthumb 13.7279 46.331
rfemur -6.88236 -6.53661 11.0881
rtibia 12.6144
rfoot -17.4765 -11.23
rtoes -9.62456
lfemur -15.6565 3.32421 -24.4851
ltibia 14.7866
lfoot -6.66699 -16.697
ltoes -19.7103
809
root 1.1141 18.497 0.215298 171.881 68.4465 161.728
lowerback -7.2154 2.56162 4.99656
upperback 0.0661943 2.95941 2.5819
thorax 4.23174 1.57568 0.202851
lowerneck -13.5393 -10.8562 -6.15363
upperneck 27.3082 -12.9445 -0.77547
head 11.488 -6.29039 -1.02796
rclavicle -9.78021e-014 -6.36111e-015
rhumerus -1.75647 46.9469 -75.181
rradius 109.404
rwrist -23.8058
rhand -12.444 14.4593
rfingers 7.12502
rthumb 13.6291 -15.0745
lclavicle -9.78021e-014 -6.36111e-015
lhumerus -9.35929 7.81898 5.68063
lradius 97.9239
lwrist 1.68444
lhand -12.1233 16.6765
lfingers 7.12502
lthumb 13.9382 46.1893
rfemur -6.83556 -6.40436 10.9258
rtibia 12.4985
rfoot -17.3545 -11.1458
rtoes -9.86754
lfemur -15.6037 3.37607 -24.6018
ltibia 14.8865
lfoot -6.77656 -16.445
ltoes -19.5658
